<?xml version="1.0" encoding="iso-8859-1"?>
<!-- Generator: Adobe Illustrator 19.0.0, SVG Export Plug-In . SVG Version: 6.00 Build 0)  -->
<svg version="1.1" id="Layer_1" xmlns="http://www.w3.org/2000/svg" xmlns:xlink="http://www.w3.org/1999/xlink" x="0px" y="0px"
	 viewBox="0 0 512.004 512.004" style="enable-background:new 0 0 512.004 512.004;" xml:space="preserve">
<g>
	<g>
		<g>
			<path style="fill:#010101;" d="M176.702,71.081c2.177,0,5.443,0,7.621-4.355c7.621-3.266,11.975-8.709,13.064-16.33h1.089
				c6.532-2.177,15.241-2.177,27.216-2.177c3.266,1.089,7.621,1.089,10.886,1.089c8.709,1.089,17.418,1.089,26.127,1.089
				c9.798-1.089,19.596-2.177,28.305-3.266c7.62-1.089,14.152-2.177,21.773-2.177c11.975,0,25.039,1.089,37.014,2.177l47.9,5.443
				c10.886,1.089,21.773-6.532,22.862-18.507c1.089-10.886-6.532-21.773-18.507-22.862l-47.9-4.355
				c-13.064-1.089-28.305-3.266-43.546-2.177c-8.709,1.089-17.418,2.177-25.039,4.355c-8.709,1.089-16.33,2.177-23.95,2.177
				c-6.532,0-14.152-1.089-21.773-1.089c-4.355-1.089-7.62-1.089-11.975-1.089c-17.418-1.089-31.571,1.089-42.457,4.355
				c-13.064,4.355-22.862,11.975-27.216,21.773c-4.355,7.621-4.355,15.241-1.089,22.862
				C160.372,65.638,167.993,71.081,176.702,71.081z"/>
			<path style="fill:#010101;" d="M491.32,199.541H260.527v-81.648c0-10.886-8.709-20.684-20.684-20.684H107.029
				c-10.886,0-20.684,8.709-20.684,20.684v148.056L1.43,479.322c-2.177,6.532-2.177,14.152,2.177,19.596
				c4.355,5.443,10.886,8.709,17.418,8.709h219.906h86.003H491.32c10.886,0,20.684-9.798,20.684-20.684V220.225
				C512.004,209.339,503.295,199.541,491.32,199.541z M127.713,277.923c1.089-2.177,1.089-5.443,1.089-7.621V138.577h91.446v131.726
				c0,2.177,0,5.443,1.089,7.621l75.116,187.247H52.596L127.713,277.923z M470.636,466.259H340.243l-79.715-200.31v-25.039h210.108
				V466.259z"/>
			<path style="fill:#010101;" d="M366.126,345.419c10.886,0,20.684-9.798,20.684-20.684v-21.773
				c0-10.886-9.798-20.684-20.684-20.684c-10.886,0-20.684,8.709-20.684,20.684v21.773
				C345.442,335.621,354.151,345.419,366.126,345.419z"/>
		</g>
	</g>
</g>
<g>
</g>
<g>
</g>
<g>
</g>
<g>
</g>
<g>
</g>
<g>
</g>
<g>
</g>
<g>
</g>
<g>
</g>
<g>
</g>
<g>
</g>
<g>
</g>
<g>
</g>
<g>
</g>
<g>
</g>
</svg>
